<?xml version="1.0" standalone="no"?>
<!DOCTYPE svg PUBLIC "-//W3C//DTD SVG 20010904//EN"
 "http://www.w3.org/TR/2001/REC-SVG-20010904/DTD/svg10.dtd">
<svg version="1.0" xmlns="http://www.w3.org/2000/svg"
 width="283.000000pt" height="283.000000pt" viewBox="0 0 283.000000 283.000000"
 preserveAspectRatio="xMidYMid meet">
<metadata>
Created by potrace 1.14, written by Peter Selinger 2001-2017
</metadata>
<g transform="translate(0.000000,283.000000) scale(0.100000,-0.100000)"
fill="#000000" stroke="none">
<path d="M906 2548 c9 -81 5 -89 -43 -73 -47 16 -63 8 -32 -17 l24 -18 -20
-18 c-234 -199 -305 -245 -305 -195 0 9 -3 14 -6 10 -4 -3 -6 -25 -6 -48 1
-31 -13 -69 -55 -153 -68 -135 -96 -210 -127 -331 -21 -81 -31 -101 -75 -155
-113 -136 -193 -279 -235 -422 -31 -103 -30 -242 1 -324 22 -55 72 -134 112
-175 85 -86 228 -163 362 -195 49 -12 220 -11 284 1 43 8 65 8 65 2 0 -14 -43
-77 -52 -77 -5 0 -8 -5 -8 -11 0 -7 14 -9 38 -6 27 4 46 15 69 42 31 37 42 37
36 0 -9 -58 -14 -139 -8 -133 9 9 54 88 68 120 6 16 14 28 18 28 4 0 33 -12
65 -26 33 -14 59 -25 59 -24 0 1 25 -5 55 -13 112 -32 303 -44 410 -27 41 6
93 14 114 16 22 3 81 18 131 35 121 38 147 38 179 -3 l26 -33 1 30 c1 17 2 44
1 62 -1 28 8 39 66 85 78 60 172 153 227 221 27 34 44 47 59 45 18 -3 20 2 17
39 -1 27 4 53 15 73 20 34 30 36 58 15 29 -22 36 -18 26 14 -12 43 1 55 49 47
25 -4 41 -2 41 4 0 5 -4 10 -10 10 -17 0 -41 59 -44 111 -1 28 6 87 15 132 10
45 21 113 24 152 4 38 12 73 18 78 7 4 29 5 49 1 l37 -6 -9 32 c-5 18 -14 38
-20 45 -8 10 -5 17 12 29 22 16 22 16 -15 16 -46 0 -53 15 -38 75 11 44 10 47
-15 69 -25 21 -26 26 -16 54 10 30 10 31 -8 22 -30 -16 -40 -12 -40 18 0 38
37 86 106 137 31 24 68 57 82 75 l24 31 -36 -15 c-20 -8 -36 -12 -36 -8 0 13
72 82 103 100 l32 17 -33 3 c-27 3 -32 7 -26 20 48 114 38 254 -26 335 -59 75
-198 95 -303 43 -31 -15 -66 -41 -78 -57 -25 -36 -36 -99 -20 -125 10 -18 10
-18 11 1 0 32 36 83 71 101 41 21 90 20 123 -2 28 -18 70 -87 59 -98 -4 -3 7
-6 24 -6 120 0 54 -218 -88 -290 -29 -16 -43 -17 -72 -9 -41 11 -93 67 -102
110 -5 20 -11 26 -25 22 -14 -4 -23 2 -32 21 -9 21 -18 26 -37 24 -21 -2 -29
4 -43 31 -13 25 -14 39 -7 53 13 25 14 25 -44 31 -64 8 -80 22 -74 63 5 31 5
31 -22 21 -45 -17 -64 -3 -59 42 3 36 2 38 -16 29 -32 -17 -136 -2 -225 32
-106 41 -200 57 -326 55 -97 -2 -213 -13 -226 -21 -4 -2 -24 -6 -44 -10 -21
-3 -70 -17 -109 -31 -39 -13 -78 -27 -86 -29 -11 -4 -19 6 -28 29 -7 18 -23
44 -37 57 l-26 24 7 -56z m644 -23 c250 -21 500 -142 675 -327 85 -89 125
-139 125 -155 0 -7 5 -13 10 -13 6 0 10 -5 10 -11 0 -6 9 -24 21 -41 12 -16
38 -71 59 -122 144 -352 95 -750 -131 -1056 -150 -204 -404 -371 -632 -416
-10 -2 -26 -5 -35 -8 -31 -10 -117 -17 -217 -17 -85 0 -145 7 -273 35 -34 7
-143 47 -176 63 -25 13 -27 17 -13 25 12 6 47 -2 119 -26 379 -129 773 -45
1064 227 332 310 423 805 224 1215 -129 267 -328 440 -635 550 -62 23 -211 44
-309 44 -272 -1 -537 -108 -727 -295 -159 -155 -250 -322 -306 -562 -2 -11 -7
-78 -10 -150 -9 -210 37 -399 139 -568 26 -44 48 -82 48 -84 0 -1 -8 -3 -18
-3 -21 0 -85 106 -126 205 -139 343 -90 750 127 1045 95 129 234 251 367 323
73 39 217 92 274 101 21 4 42 8 46 11 4 2 49 7 101 11 52 4 96 8 97 10 2 1 9
1 15 -1 7 -2 46 -6 87 -10z m-1244 -1083 c0 -112 17 -224 47 -323 l14 -46 -44
-27 c-24 -16 -48 -36 -53 -45 -8 -15 -4 -18 22 -18 24 0 40 -10 72 -46 22 -26
53 -49 68 -53 24 -5 58 -41 58 -60 0 -12 -90 5 -129 25 -46 24 -87 70 -114
131 -26 58 -32 227 -11 321 19 84 59 209 67 209 1 0 2 -30 3 -68z"/>
</g>
</svg>
